<svg width="519" height="475" viewBox="0 0 519 475" fill="none" xmlns="http://www.w3.org/2000/svg">
<ellipse cx="254.5" cy="237.5" rx="254.5" ry="237.5" fill="#00B969" fill-opacity="0.71"/>
<g clip-path="url(#clip0_1306:85)">
<path d="M286.148 239.997L286.135 240.104L286.102 240.411L282.69 272.534L261.796 282.591L261.469 282.386L249.771 275.097L243.722 244.651L243.308 242.561L243.434 242.497L269.312 229.743L286.132 239.985L286.148 239.997Z" fill="#00B969"/>
<path d="M261.469 282.386L249.771 275.098L243.308 242.561L243.434 242.498L260.293 251.829L261.469 282.386Z" fill="#00B969"/>
<path opacity="0.2" d="M261.762 282.014L252.864 259.645L254.007 253.303L248.625 244.988L248.167 245.499L253.352 253.509L249.478 275.006L250.064 275.189L252.653 260.818L261.229 282.379L261.762 282.014Z" fill="black"/>
<path d="M286.148 240.391L286.102 240.411L260.293 252.223L243.722 244.651L243.308 242.561L243.434 242.497L269.312 229.743L286.132 239.985L286.135 240.104L286.148 240.391Z" fill="#3F3D56"/>
<path d="M260.744 252.815L255.483 247.491L256.685 241.575L271.717 234.476L281.938 235.264L285.997 239.8L286.298 240.983L260.744 252.815Z" fill="#00B969"/>
<path d="M243.608 242.561L255.483 241.969L261.916 239.105L271.946 234.476L273.822 230.927L269.141 229.828L243.608 242.561Z" fill="#00B969"/>
<path d="M267.267 236.215L261.075 239.065L261.274 239.809L267.466 236.959L267.267 236.215Z" fill="#CCCCCC"/>
<path d="M185.712 190.092L182.809 209.131L196.355 222.459L202.644 197.708L185.712 190.092Z" fill="#9F616A"/>
<path d="M196.597 207.545C203.811 207.545 209.659 199.873 209.659 190.409C209.659 180.946 203.811 173.274 196.597 173.274C189.383 173.274 183.535 180.946 183.535 190.409C183.535 199.873 189.383 207.545 196.597 207.545Z" fill="#9F616A"/>
<path d="M168.296 320.243C168.356 325.772 186.71 387.3 184.162 395.312C180.145 400.699 171.504 429.371 167.812 437.02C167.329 437.02 164.91 446.539 164.91 446.539C164.91 446.539 170.715 458.598 177.004 453.521C184.912 429.121 204.717 415.512 205.067 383.711C206.023 393.757 208.845 458.241 208.845 458.241C208.845 458.241 208.304 458.542 220.488 460.073C222.379 422.648 230.11 358.975 212.803 318.974C207.482 315.801 168.296 320.243 168.296 320.243Z" fill="#2F2E41"/>
<path d="M208.844 456.985C208.278 458.412 204.222 471.583 207.913 472.904C212.17 474.427 216.296 472.293 216.296 472.293C216.296 472.293 223.747 475.347 228.308 471.465C230.436 468.673 229.952 466.135 228.937 464.294C228.42 463.388 227.76 462.64 227 462.103C226.241 461.566 225.402 461.253 224.541 461.186C222.227 460.97 221.492 460.407 221.227 459.016C220.84 456.985 208.844 456.985 208.844 456.985Z" fill="#2F2E41"/>
<path d="M169.038 445.484C169.038 445.484 158.64 449.792 160.829 454.817C162.25 457.932 164.326 460.443 166.808 462.05C166.808 462.05 168.976 473.778 174.996 473.778C178.006 473.778 179.032 471.535 179.306 469.291C179.429 468.171 179.365 467.03 179.118 465.946C178.87 464.862 178.445 463.862 177.873 463.016C176.353 460.716 176.137 459.636 176.699 458.407C177.52 456.612 169.038 445.484 169.038 445.484Z" fill="#2F2E41"/>
<path d="M215.225 322.101C215.225 322.101 213.288 327.179 205.547 325.272C197.807 323.372 167.331 325.272 167.331 325.272C167.331 325.272 169.021 279.897 165.151 252.605C161.281 225.314 176.519 209.765 176.519 209.765L181.358 203.417C186.197 202.788 196.415 222.485 196.415 222.485C199.777 223.224 202.916 241.975 205.594 259.717C205.752 260.731 205.901 261.733 206.05 262.735C207.285 271.007 209.003 280.214 210.032 288.481C210.107 289.067 210.177 289.647 210.242 290.228C211.465 300.962 213.129 311.602 215.225 322.101V322.101Z" fill="#E6E6E6"/>
<path d="M181.316 179.74C181.316 179.74 178.874 172.691 185.224 169.488C185.224 169.488 190.596 157.954 201.342 165.643C201.342 165.643 208.668 169.488 208.668 179.74C208.668 189.992 211.11 191.914 211.11 191.914C211.11 191.914 207.474 187.02 206.497 183.175C205.52 179.33 197.923 178.458 194.992 182.303C192.062 186.147 184.735 185.507 184.735 185.507L185.224 199.603C185.224 199.603 182.781 191.273 181.805 191.273C180.828 191.273 179.851 179.74 181.316 179.74Z" fill="#2F2E41"/>
<path opacity="0.2" d="M210.032 288.481C198.491 280.251 179.798 262.203 173.766 252.44C165.817 239.58 174.488 229.804 174.488 229.804C184.32 221.666 196.074 249.587 196.074 249.587L205.594 259.717C205.752 260.731 205.901 261.733 206.05 262.735C207.284 271.007 209.003 280.214 210.032 288.481Z" fill="black"/>
<path d="M244.483 278.997C244.483 278.997 261.64 288.134 264.464 277.863C267.288 267.591 250.918 267.768 250.918 267.768L244.492 268.962L244.483 278.997Z" fill="#9F616A"/>
<path d="M172.289 225.625C172.289 225.625 163.622 235.406 171.566 248.262C179.51 261.118 216.019 288.588 216.019 288.588L239.8 280.154L246.53 281.769L247.799 265.194L237.885 266.464L212.717 259.433L196.668 242.35C196.668 242.35 182.118 217.491 172.289 225.625Z" fill="#E6E6E6"/>
<path opacity="0.2" d="M203.865 343.453L205.381 389.935L201.536 343.453H203.865Z" fill="black"/>
<path d="M367.581 310.203L353.815 314.387C352.751 314.711 351.631 314.477 350.696 313.736C349.76 312.994 349.082 311.803 348.805 310.416V310.416C348.644 309.611 348.625 308.77 348.747 307.954C348.87 307.138 349.132 306.369 349.513 305.705C349.895 305.041 350.386 304.498 350.95 304.119C351.514 303.739 352.136 303.532 352.77 303.512L366.067 303.107L367.581 310.203Z" fill="#FFB9B9"/>
<path d="M366.12 312.853L363.062 300.821L381.391 292.608L376.526 236.409C385.285 238.498 389.453 247.533 389.063 259.2L391.434 297.548L366.12 312.853Z" fill="#3F3D56"/>
<path d="M378.783 224.018H408.728V204.483C408.739 199.207 407.163 194.138 404.342 190.377C402.965 188.524 401.318 187.052 399.5 186.048C397.681 185.044 395.728 184.529 393.755 184.533C389.814 184.542 386.035 186.586 383.235 190.221C380.434 193.857 378.837 198.793 378.788 203.961C378.785 204.14 378.783 204.31 378.783 204.483L378.783 224.018Z" fill="#2F2E41"/>
<path d="M421.249 453.589L411.676 452.148L400.221 350.66L376.526 452.56L366.169 452.971L377.938 327.604L376.212 298.99L405.557 286.844C426.34 305.877 425.91 373.103 421.249 453.589Z" fill="#2F2E41"/>
<path d="M391.12 220.146C397.36 220.146 402.418 213.51 402.418 205.324C402.418 197.138 397.36 190.502 391.12 190.502C384.88 190.502 379.822 197.138 379.822 205.324C379.822 213.51 384.88 220.146 391.12 220.146Z" fill="#FFB9B9"/>
<path d="M402.418 232.086L383.274 238.673C386.499 230.536 387.532 222.939 385.785 216.029L399.28 213.147C398.412 219.755 399.538 226.546 402.418 232.086V232.086Z" fill="#FFB9B9"/>
<path d="M408.852 292.402C398.114 301.36 385.606 311.652 376.369 301.666L371.975 273.669C368.483 269.589 370.032 256.997 374.753 239.05C375.053 237.91 375.546 236.876 376.196 236.024C376.846 235.172 377.636 234.526 378.504 234.134L385.785 230.851C389.011 234.41 394.3 232.287 400.535 227.557L407.753 230.027L410.892 260.906C406.361 269.81 407.153 281.667 408.852 292.402Z" fill="#3F3D56"/>
<path d="M399.907 304.439L386.141 308.623C385.076 308.947 383.957 308.713 383.022 307.971C382.086 307.23 381.408 306.039 381.131 304.652C380.97 303.847 380.95 303.006 381.073 302.19C381.196 301.374 381.458 300.605 381.839 299.941C382.221 299.277 382.712 298.734 383.276 298.355C383.84 297.975 384.462 297.768 385.096 297.748L398.392 297.343L399.907 304.439Z" fill="#FFB9B9"/>
<path d="M419.585 472.992C417.977 473.954 416.631 467.989 415.275 469.737C411.481 474.627 402.382 473.531 402.382 473.531C402.076 473.402 401.794 473.193 401.552 472.917C401.31 472.641 401.113 472.303 400.973 471.924C400.833 471.545 400.754 471.133 400.739 470.712C400.724 470.292 400.775 469.872 400.887 469.477V469.477C401.022 469.006 401.242 468.584 401.529 468.249C401.815 467.913 402.16 467.674 402.532 467.552L406.566 466.229L412.9 451.616L419.803 450.47L419.978 450.844C421.312 453.666 422.173 456.828 422.501 460.12C422.83 463.413 422.62 466.759 421.885 469.936C421.311 472.349 420.529 472.426 419.585 472.992Z" fill="#2F2E41"/>
<path d="M374.078 472.992C372.47 473.954 371.124 467.989 369.768 469.737C365.975 474.627 356.875 473.531 356.875 473.531C356.569 473.402 356.287 473.193 356.045 472.917C355.803 472.641 355.606 472.303 355.466 471.924C355.326 471.545 355.247 471.133 355.232 470.712C355.217 470.292 355.268 469.872 355.38 469.477V469.477C355.515 469.006 355.735 468.584 356.022 468.249C356.309 467.913 356.653 467.674 357.026 467.552L361.06 466.229L367.394 451.616L374.296 450.47L374.471 450.844C375.805 453.666 376.666 456.828 376.995 460.12C377.324 463.413 377.113 466.759 376.378 469.936C375.804 472.349 375.023 472.426 374.078 472.992Z" fill="#2F2E41"/>
<path d="M404.365 192.962L401.52 204.838L376.917 204.265C377.002 200.109 378.073 196.092 379.982 192.775C381.891 189.457 384.542 187.004 387.565 185.759C390.589 184.514 393.833 184.539 396.845 185.83C399.857 187.122 402.486 189.615 404.365 192.962H404.365Z" fill="#2F2E41"/>
<path d="M398.445 307.089L395.388 295.057L413.717 286.844L406.783 229.427C411.019 230.437 414.832 233.426 417.517 237.84C420.202 242.254 421.577 247.794 421.388 253.436L423.76 291.784L398.445 307.089Z" fill="#3F3D56"/>
<path d="M354.668 274.651L335.605 280.029L331.71 255.424L338.884 242.785L345.341 241.172L352.515 250.718L354.668 274.651Z" fill="#CCCCCC"/>
<path d="M345.854 275.724H334.374L332.81 265.588L331.096 254.481L333.657 249.642L338.58 251.658L343.908 261.342L345.244 271.209L345.337 271.911L345.854 275.724Z" fill="#E6E6E6"/>
<path d="M365.122 269.81L351.901 271.827L354.258 249.777L359.588 243.457L364.2 244.936L367.275 254.214L365.122 269.81Z" fill="#CCCCCC"/>
<path d="M366.863 256.766L365.633 265.643L361.637 295.891L346.264 302.349L345.733 301.97L337.448 296.026L332.786 265.576L332.809 265.588L345.137 272.095L345.244 271.209L345.319 270.567L346.264 262.686L350.465 256.766L364.506 252.33L366.863 256.766Z" fill="#E6E6E6"/>
<path d="M357.128 255.827C358.939 255.827 360.408 253.901 360.408 251.525C360.408 249.148 358.939 247.222 357.128 247.222C355.317 247.222 353.848 249.148 353.848 251.525C353.848 253.901 355.317 255.827 357.128 255.827Z" fill="#E6E6E6"/>
<path d="M349.064 253.745L341.583 255.493L341.618 255.758L349.1 254.01L349.064 253.745Z" fill="white"/>
<path d="M345.733 301.97L337.448 296.026L332.786 265.576L332.81 265.588L331.096 254.481L333.657 249.642L338.58 251.658L343.908 261.342L345.244 271.209L345.319 270.567L345.337 271.911L345.389 275.724L345.733 301.97Z" fill="#F2F2F2"/>
<path d="M337.549 296.064L337.351 295.994L341.437 275.89L336.758 267.797L336.921 267.634L341.661 275.832L337.549 296.064Z" fill="#CCCCCC"/>
<path d="M339.857 284.586L339.672 284.703L346.172 302.406L346.357 302.29L339.857 284.586Z" fill="#CCCCCC"/>
<path opacity="0.2" d="M366.056 263.801L365.287 269.379L365.248 269.384L361.802 295.463L346.428 301.917L346.336 301.975L346.275 301.806L337.614 295.597L337.515 295.562L337.568 295.299L332.951 265.144L332.974 265.156L332.463 261.846L332.845 261.124L334.027 258.892L338.946 260.908L344.276 270.589L344.354 271.165L344.913 275.295L345.138 276.954L345.612 280.459L346.063 276.693L346.225 275.338L346.633 271.934L350.835 266.018L352.704 265.427L354.004 265.016L355.794 264.451C355.239 264.009 354.797 263.36 354.523 262.587C354.249 261.815 354.157 260.953 354.257 260.111C354.357 259.269 354.645 258.485 355.085 257.859C355.526 257.232 356.098 256.791 356.729 256.592C357.36 256.392 358.023 256.443 358.632 256.738C359.241 257.033 359.77 257.558 360.152 258.248C360.533 258.937 360.75 259.76 360.775 260.611C360.799 261.463 360.631 262.305 360.29 263.03L364.877 261.581L366.007 263.709L366.056 263.801Z" fill="black"/>
<path d="M346.223 286.32H334.744L331.464 265.077L334.027 260.236L338.946 262.253L344.276 271.933L346.223 286.32Z" fill="#E6E6E6"/>
<path d="M362.006 306.488L346.633 312.942L337.819 306.623L333.155 276.169L345.506 282.69L346.633 273.278L350.835 267.362L364.876 262.925L367.234 267.362L366.004 276.236L362.006 306.488Z" fill="#E6E6E6"/>
<path d="M357.497 266.421C359.308 266.421 360.777 264.495 360.777 262.119C360.777 259.742 359.308 257.816 357.497 257.816C355.686 257.816 354.217 259.742 354.217 262.119C354.217 264.495 355.686 266.421 357.497 266.421Z" fill="#E6E6E6"/>
<path d="M346.11 312.357L337.825 306.412L333.163 275.962L333.186 275.974L331.473 264.867L334.034 260.028L338.957 262.044L344.285 271.728L345.621 281.595L345.696 280.954L345.714 282.298L345.766 286.11L346.11 312.357Z" fill="#F2F2F2"/>
<path d="M337.918 306.657L337.72 306.588L341.806 286.483L337.126 278.39L337.29 278.227L342.03 286.426L337.918 306.657Z" fill="#CCCCCC"/>
<path d="M340.225 295.18L340.041 295.297L346.541 313L346.725 312.884L340.225 295.18Z" fill="#CCCCCC"/>
<path d="M474.823 447.152L455.76 452.53L451.865 427.925L459.04 415.286L465.496 413.673L472.671 423.219L474.823 447.152Z" fill="#CCCCCC"/>
<path d="M466.009 448.225H454.529L452.964 438.089L451.25 426.982L453.812 422.143L458.735 424.159L464.062 433.843L465.399 443.71L465.492 444.412L466.009 448.225Z" fill="#E6E6E6"/>
<path d="M485.277 442.311L472.056 444.328L474.414 422.278L479.743 415.959L484.355 417.437L487.43 426.715L485.277 442.311Z" fill="#CCCCCC"/>
<path d="M487.018 429.267L485.788 438.144L481.793 468.392L466.419 474.85L465.888 474.471L457.603 468.527L452.941 438.077L452.965 438.089L465.292 444.595L465.399 443.71L465.474 443.068L466.419 435.187L470.62 429.267L484.661 424.831L487.018 429.267Z" fill="#E6E6E6"/>
<path d="M477.283 428.328C479.094 428.328 480.563 426.402 480.563 424.026C480.563 421.649 479.094 419.723 477.283 419.723C475.472 419.723 474.003 421.649 474.003 424.026C474.003 426.402 475.472 428.328 477.283 428.328Z" fill="#E6E6E6"/>
<path d="M469.22 426.246L461.738 427.994L461.774 428.259L469.256 426.511L469.22 426.246Z" fill="white"/>
<path d="M465.888 474.471L457.603 468.527L452.941 438.077L452.964 438.089L451.25 426.982L453.812 422.143L458.735 424.159L464.062 433.843L465.399 443.71L465.474 443.068L465.492 444.412L465.543 448.225L465.888 474.471Z" fill="#F2F2F2"/>
<path d="M457.704 468.564L457.506 468.495L461.593 448.391L456.913 440.297L457.077 440.135L461.817 448.333L457.704 468.564Z" fill="#CCCCCC"/>
<path d="M460.011 457.087L459.827 457.204L466.327 474.907L466.511 474.791L460.011 457.087Z" fill="#CCCCCC"/>
<path d="M512.492 472.504H499.918L498.055 440.734H514.355L512.492 472.504Z" fill="#E6E6E6"/>
<path d="M514.588 453.564H497.822V458.452H514.588V453.564Z" fill="#F2F2F2"/>
<path d="M518.896 443.015L516.216 441.979L516.181 440.692L504.268 436.089L503.707 437.145L501.027 436.11L499.344 439.281L519 446.877L518.896 443.015Z" fill="#CCCCCC"/>
<path d="M124.544 432.406L124.531 432.513L124.498 432.82L121.086 464.943L100.192 475L99.8647 474.795L88.1668 467.507L82.1181 437.06L81.7036 434.97L81.8298 434.907L107.708 422.153L124.528 432.395L124.544 432.406Z" fill="#00B969"/>
<path d="M99.8647 474.795L88.1668 467.507L81.7036 434.97L81.8298 434.907L98.6893 444.238L99.8647 474.795Z" fill="#00B969"/>
<path opacity="0.2" d="M100.158 474.423L91.2602 452.053L92.4031 445.712L87.0208 437.397L86.5625 437.908L91.7478 445.919L87.8744 467.416L88.4598 467.597L91.0488 453.228L99.6249 474.788L100.158 474.423Z" fill="black"/>
<path d="M124.544 432.801L124.498 432.82L98.6893 444.632L82.1181 437.06L81.7036 434.97L81.8298 434.907L107.708 422.153L124.528 432.395L124.531 432.513L124.544 432.801Z" fill="#3F3D56"/>
<path d="M99.1401 445.224L93.8789 439.9L95.0814 433.984L110.113 426.885L120.334 427.674L124.393 432.209L124.694 433.392L99.1401 445.224Z" fill="#00B969"/>
<path d="M82.0044 434.97L93.8793 434.378L100.312 431.514L110.342 426.885L112.218 423.335L107.537 422.237L82.0044 434.97Z" fill="#00B969"/>
<path d="M105.663 428.624L99.4717 431.474L99.6707 432.218L105.862 429.368L105.663 428.624Z" fill="#CCCCCC"/>
<path d="M71.7659 473.235H59.1915L57.3286 441.465H73.6287L71.7659 473.235Z" fill="#00B969"/>
<path d="M73.8615 454.295H57.0957V459.183H73.8615V454.295Z" fill="#E6E6E6"/>
<path d="M74.5601 439.632H71.7658L71.4552 438.41H59.0364L58.7257 439.632H55.9314L55 443.298H75.4916L74.5601 439.632Z" fill="#3F3D56"/>
<path d="M431.457 472.86H149.188V474.082H431.457V472.86Z" fill="#3F3D56"/>
</g>
<defs>
<clipPath id="clip0_1306:85">
<rect width="464" height="312" fill="white" transform="translate(55 163)"/>
</clipPath>
</defs>
</svg>
